# xmcd
#
# Track frame offsets:
#	150
#	18289
#	33461
#	54182
#	74914
#	90602
#	102372
#	120047
#	137626
#	152089
#	164087
#	177351
#	194425
#	208486
#	225861
#	240065
#	256911
#
# Disc length: 3562 seconds
#
# Revision: 0
# Processed by: cddbd v1.5.2PL0 Copyright (c) Steve Scherf et al.
# Submitted via: EasyCDDAExtractor 9.1.0.1
#
DISCID=de0de811
DTITLE=Various Artist - ΤΗΣ ΝΥΧΤΑΣ ΤΑ ΗΧΕΙΑ [CD 1)
DYEAR=2008
DGENRE=ΝΤΕΧΝΟ
TTITLE0=ΜΗΤΡΟΠΑΝΟΣ and ΛΑΚΗΣ ΠΑΠΑΔΟΠΟΥΛΟΣ - ΤΗΣ ΝΥΧΤΑΣ ΤΑ ΗΧΕΙΑ
TTITLE1=NUKHET DURU - ΤΟ ΠΑΛΙΟ ΜΟΥ ΠΑΛΤΟ (PALTO)
TTITLE2=ΛΑΚΗΣ ΠΑΠΑΔΟΠΟΥΛΟΣ - Ο ΚΟΥΡΣΑΡΟΣ
TTITLE3=ΠΛΙΑΤΣΙΚΑΣ and ΛΑΚΗΣ ΠΑΠΑΔΟΠΟΥΛΟΣ - ΤΣΑΛΑΚΩΜΕΝΗ ΠΕΤΑΛΟΥΔΑ
TTITLE4=ΛΑΚΗΣ ΠΑΠΑΔΟΠΟΥΛΟΣ - ΤΑ ΦΘΙΝΟΠΩΡΙΝΑ ΤΑ ΧΡΩΜΑΤΑ
TTITLE5=ΠΑΠΑΚΩΝΣΤΑΝΤΙΝΟΥ - ΘΑ ΦΥΓΕΙΣ ΜΟΝΑΧΗ
TTITLE6=ΛΑΚΗΣ ΠΑΠΑΔΟΠΟΥΛΟΣ - ΒΡΩΜΙΚΑ ΦΙΛΙΑ
TTITLE7=ΠΥΞ ΛΑΞ - ΑΡΤΙΣΤΑ
TTITLE8=ΛΑΚΗΣ ΠΑΠΑΔΟΠΟΥΛΟΣ - ΔΕΝ ΕΧΩ ΣΤΙΓΜΕΣ (ΒΙΤΡΙΝΕΣ)
TTITLE9=ΛΑΚΗΣ ΠΑΠΑΔΟΠΟΥΛΟΣ - ΚΑΤΙ ΓΛΥΚΟ
TTITLE10=ΑΡΛΕΤΑ - ΤΣΑΙ ΓΙΑΣΕΜΙΟΥ
TTITLE11=ΜΑΡΓΑΡΙΤΑ ΖΟΡΜΠΑΛΑ - ΚΑΠΟΤΕ ΚΑΠΟΥ
TTITLE12=ΓΛΥΚΕΡΙΑ - ΕΤΣΙ ΑΠΛΑ Σ' ΑΓΑΠΩ
TTITLE13=ΡΟΥΒΑΣ and ΛΑΚΗΣ ΠΑΠΑΔΟΠΟΥΛΟΣ - ΧΑΡΤΙΝΗ ΖΩΗ
TTITLE14=ΕΛΕΝΗ ΔΗΜΟΥ - ΚΑΤΑ ΒΑΘΟΣ... ΑΛΕΠΟΥ
TTITLE15=ΛΑΚΗΣ ΠΑΠΑΔΟΠΟΥΛΟΣ - ΘΑ ΦΥΓΩ ΝΥΧΤΑ
TTITLE16=ΒΙΚΥ ΜΟΣΧΟΛΙΟΥ - ΟΔΟΣ ΚΗΦΙΣΙΑΣ
EXTD=
EXTT0=
EXTT1=
EXTT2=
EXTT3=
EXTT4=
EXTT5=
EXTT6=
EXTT7=
EXTT8=
EXTT9=
EXTT10=
EXTT11=
EXTT12=
EXTT13=
EXTT14=
EXTT15=
EXTT16=
PLAYORDER=
